<?xml version="1.0" standalone="no"?><!DOCTYPE svg PUBLIC "-//W3C//DTD SVG 1.1//EN" "http://www.w3.org/Graphics/SVG/1.1/DTD/svg11.dtd"><svg t="1680264227361" class="icon" viewBox="0 0 1024 1024" version="1.1" xmlns="http://www.w3.org/2000/svg" p-id="2906" xmlns:xlink="http://www.w3.org/1999/xlink" width="200" height="200"><path d="M776.041412 29.274353a205.703529 205.703529 0 0 1 146.642823 60.777412 206.456471 206.456471 0 0 1 61.289412 146.793411c0 55.055059-21.744941 107.218824-61.289412 146.763295l-545.731764 548.412235c-6.445176 6.505412-12.227765 10.029176-19.215059 11.806118l-291.990588 54.031058h-11.294118c-9.938824 0-19.576471-4.126118-27.105882-11.685647-8.131765-8.101647-12.167529-17.317647-12.288-27.979294v-0.903529a49.091765 49.091765 0 0 1 0.481882-6.144l54.061176-293.044706c2.198588-8.884706 6.324706-15.811765 11.896471-19.606588L629.458824 90.051765A205.763765 205.763765 0 0 1 776.041412 29.274353zM103.514353 907.745882l-0.481882 2.710589 225.490823-42.315295 1.867294-0.331294 538.051765-538.563764c24.124235-24.154353 37.948235-57.825882 37.948235-92.461177 0-33.641412-12.769882-64.752941-37.948235-92.461176-49.814588-49.844706-132.638118-49.844706-184.771765 0L145.618824 682.887529l-42.104471 224.888471z m538.925176 26.774589h303.164236a38.038588 38.038588 0 0 1 0 76.047058H642.409412a38.008471 38.008471 0 0 1 0-76.047058z" fill="#3CC7B3" p-id="2907"></path><path d="M567.205647 206.607059l239.013647 239.254588c7.860706 7.890824 17.980235 12.257882 28.461177 12.257882 9.246118 0 21.985882-3.674353 28.039529-11.776 16.685176-16.715294 16.685176-41.261176 0.421647-57.46447l-239.043765-239.224471a39.905882 39.905882 0 0 0-28.431058-12.197647c-10.209882 0-20.359529 4.035765-28.461177 12.197647a39.363765 39.363765 0 0 0 0 56.982588" fill="#F7B500" p-id="2908"></path></svg>